#!OML:ASF F:\VICON\USERDATA\INSTALL\rory3\rory3.ASF
:FULLY-SPECIFIED
:DEGREES
131
root 1.33145 17.5597 -2.56778 -1.17057 -2.03115 3.02416
lowerback 7.10413 0.228528 -1.8373
upperback 0.442536 0.227245 1.90381
thorax -3.5426 0.155838 2.98242
lowerneck -14.7027 -1.79644 -9.29891
upperneck 23.8689 -0.978995 3.301
head 10.1121 -0.910763 2.60585
rclavicle -2.68359e-015 1.90833e-014
rhumerus -29.0172 -11.2315 -78.9322
rradius 32.3224
rwrist 6.75807
rhand -15.7071 15.3047
rfingers 7.12502
rthumb 10.4827 -14.4139
lclavicle -2.68359e-015 1.90833e-014
lhumerus -36.138 9.34489 85.1741
lradius 22.6532
lwrist -17.801
lhand -9.22104 26.3374
lfingers 7.12502
lthumb 16.7337 55.6362
rfemur -19.7337 -6.67604 17.1154
rtibia 73.9757
rfoot -0.59809 -5.62889
rtoes 11.503
lfemur -10.5638 -1.56984 -27.1914
ltibia 26.8335
lfoot -11.4636 2.26464
ltoes 0.968551
132
root 1.33818 17.5527 -2.38892 -1.27266 -2.03285 3.33501
lowerback 7.23306 0.15497 -2.12917
upperback 0.413063 0.104041 1.89947
thorax -3.638 0.101002 3.15618
lowerneck -14.688 -1.79899 -9.35462
upperneck 23.9783 -0.97026 3.29812
head 10.1489 -0.915215 2.61696
rclavicle 1.04362e-015 5.56597e-015
rhumerus -29.5565 -11.4082 -78.7719
rradius 32.1085
rwrist 6.58391
rhand -15.8294 15.0555
rfingers 7.12502
rthumb 10.3648 -14.6691
lclavicle 1.04362e-015 5.56597e-015
lhumerus -35.823 8.77795 85.4049
lradius 23.0733
lwrist -17.216
lhand -9.34066 27.1436
lfingers 7.12502
lthumb 16.6185 56.4521
rfemur -21.1434 -7.00834 16.793
rtibia 74.0583
rfoot -1.95919 -5.31016
rtoes 11.0469
lfemur -9.7029 -1.5086 -27.6404
ltibia 26.7531
lfoot -12.0389 2.48624
ltoes 0.193259
133
root 1.34604 17.5391 -2.21011 -1.31051 -1.9867 3.59154
lowerback 7.35812 0.0790742 -2.25745
upperback 0.335966 -0.0116728 1.83635
thorax -3.77999 0.0483609 3.17619
lowerneck -14.7982 -1.78978 -9.26607
upperneck 24.1706 -0.963526 3.27355
head 10.2382 -0.911284 2.59733
rclavicle -5.56597e-015 4.77083e-015
rhumerus -30.2467 -11.6003 -78.7023
rradius 32.1743
rwrist 6.35832
rhand -15.988 14.7402
rfingers 7.12502
rthumb 10.2118 -14.9919
lclavicle -5.56597e-015 4.77083e-015
lhumerus -35.4521 8.31228 85.4187
lradius 23.3002
lwrist -17.0652
lhand -9.66921 26.5001
lfingers 7.12502
lthumb 16.3022 55.8349
rfemur -22.6096 -7.34213 16.5684
rtibia 73.9353
rfoot -3.29066 -4.97116
rtoes 9.53468
lfemur -9.00632 -1.50269 -28.0348
ltibia 26.7575
lfoot -12.5282 2.68795
ltoes 0.135527
134
root 1.34664 17.5227 -2.04336 -1.19122 -1.70316 3.71219
lowerback 7.4233 -0.104284 -2.35984
upperback 0.245571 -0.264045 1.86956
thorax -3.89177 -0.0718418 3.29661
lowerneck -14.969 -1.80167 -9.27899
upperneck 24.2108 -0.957807 3.26587
head 10.2854 -0.911167 2.59821
rclavicle -9.69075e-015 -1.35174e-014
rhumerus -30.6517 -11.8687 -78.6025
rradius 31.9785
rwrist 6.29195
rhand -16.1149 14.5678
rfingers 7.12502
rthumb 10.0893 -15.1703
lclavicle -9.69075e-015 -1.35174e-014
lhumerus -34.9089 7.85219 85.477
lradius 23.4475
lwrist -16.6739
lhand -10.1155 25.055
lfingers 7.12502
lthumb 15.8724 54.4245
rfemur -24.1859 -7.75176 16.596
rtibia 73.6265
rfoot -4.50223 -4.77899
rtoes 8.11661
lfemur -8.6253 -1.57892 -28.2198
ltibia 26.8979
lfoot -13.0956 2.59916
ltoes 0.374631
135
root 1.34503 17.5022 -1.87738 -1.11992 -1.39522 4.01599
lowerback 7.4573 -0.27474 -2.69739
upperback 0.232271 -0.520241 1.87677
thorax -3.90273 -0.192436 3.52294
lowerneck -15.1204 -1.83512 -9.41533
upperneck 24.1342 -0.968834 3.32532
head 10.2892 -0.919355 2.63978
rclavicle 9.93923e-016 -2.3059e-014
rhumerus -30.8844 -12.1469 -78.4498
rradius 31.5976
rwrist 6.27825
rhand -16.106 14.2767
rfingers 7.12502
rthumb 10.0979 -15.461
lclavicle 9.93923e-016 -2.3059e-014
lhumerus -34.4403 7.44795 85.5355
lradius 23.8165
lwrist -16.4247
lhand -10.1557 24.7273
lfingers 7.12502
lthumb 15.8337 54.0998
rfemur -25.6264 -8.1182 16.3988
rtibia 73.1443
rfoot -5.50002 -4.48046
rtoes 7.1166
lfemur -8.21851 -1.59209 -28.5948
ltibia 27.1633
lfoot -13.7615 2.42162
ltoes 0.836604
136
root 1.34468 17.4776 -1.70772 -1.13155 -1.40044 4.01158
lowerback 7.5441 -0.343696 -2.67947
upperback 0.224399 -0.61093 1.91164
thorax -3.95214 -0.236434 3.56025
lowerneck -15.3015 -1.87399 -9.32529
upperneck 24.2692 -1.00837 3.24534
head 10.3754 -0.941378 2.59292
rclavicle 4.52235e-015 -1.19271e-014
rhumerus -31.1723 -12.4535 -78.3112
rradius 31.1768
rwrist 6.26435
rhand -15.8618 14.3091
rfingers 7.12502
rthumb 10.3335 -15.417
lclavicle 4.52235e-015 -1.19271e-014
lhumerus -34.1424 6.97736 85.5159
lradius 24.3583
lwrist -16.2255
lhand -10.0246 25.1715
lfingers 7.12502
lthumb 15.96 54.534
rfemur -26.947 -8.13067 16.5863
rtibia 72.4517
rfoot -6.4013 -4.27871
rtoes 6.70547
lfemur -7.68204 -1.53592 -28.6344
ltibia 27.4169
lfoot -14.4987 2.50202
ltoes 0.984745
137
root 1.3468 17.4543 -1.53555 -1.16494 -1.46612 4.04477
lowerback 7.59844 -0.388134 -2.6374
upperback 0.305553 -0.66737 1.91858
thorax -3.89398 -0.267473 3.54957
lowerneck -15.6316 -1.86354 -9.1969
upperneck 24.3492 -0.969504 3.15438
head 10.4642 -0.922873 2.5453
rclavicle 4.27387e-015 7.95139e-016
rhumerus -31.384 -12.7669 -78.2199
rradius 30.8346
rwrist 6.31749
rhand -15.7157 14.597
rfingers 7.12502
rthumb 10.4744 -15.1221
lclavicle 4.27387e-015 7.95139e-016
lhumerus -33.4893 6.70098 85.4428
lradius 24.6565
lwrist -16.1359
lhand -9.97469 25.46
lfingers 7.12502
lthumb 16.008 54.8187
rfemur -28.1761 -8.02838 16.7171
rtibia 71.5542
rfoot -7.52216 -4.19372
rtoes 5.38666
lfemur -7.08379 -1.42909 -28.7292
ltibia 27.5474
lfoot -15.1438 2.69362
ltoes 1.03071
138
root 1.3517 17.427 -1.35687 -1.19256 -1.24239 4.61103
lowerback 7.49896 -0.525553 -3.10789
upperback 0.427382 -0.893036 1.80267
thorax -3.68815 -0.378416 3.71517
lowerneck -15.7866 -1.82894 -9.14968
upperneck 24.2529 -0.89711 3.07805
head 10.4534 -0.891407 2.51821
rclavicle -1.98785e-014 3.73715e-014
rhumerus -31.6683 -12.9619 -78.1316
rradius 30.6398
rwrist 6.48265
rhand -15.8427 15.0169
rfingers 7.12502
rthumb 10.3519 -14.7083
lclavicle -1.98785e-014 3.73715e-014
lhumerus -32.7104 6.4942 85.4014
lradius 24.7703
lwrist -16.1991
lhand -10.2321 25.5884
lfingers 7.12502
lthumb 15.7602 54.9668
rfemur -29.2651 -8.33041 16.1368
rtibia 70.4887
rfoot -8.75688 -3.87406
rtoes 3.35585
lfemur -6.42341 -1.47621 -29.4375
ltibia 27.634
lfoot -15.6976 2.78179
ltoes 1.3188
139
root 1.35429 17.405 -1.18178 -1.17977 -1.10765 5.06747
lowerback 7.59267 -0.646457 -3.50426
upperback 0.344096 -1.09399 1.72835
thorax -3.80414 -0.468109 3.88612
lowerneck -15.6531 -1.80645 -9.24254
upperneck 24.1955 -0.866321 3.12
head 10.4054 -0.880413 2.55195
rclavicle 1.49089e-016 1.35174e-014
rhumerus -32.1402 -12.9769 -78.0026
rradius 30.3734
rwrist 6.57096
rhand -15.9412 15.0931
rfingers 7.12502
rthumb 10.2569 -14.6368
lclavicle 1.49089e-016 1.35174e-014
lhumerus -32.334 6.0986 85.377
lradius 25.004
lwrist -15.9171
lhand -10.3205 25.9344
lfingers 7.12502
lthumb 15.675 55.3194
rfemur -30.3486 -8.51897 15.7186
rtibia 69.1924
rfoot -9.45746 -3.56172
rtoes 2.62504
lfemur -5.73029 -1.52049 -30.0011
ltibia 27.6136
lfoot -16.2787 2.86351
ltoes 1.18581
140
root 1.35278 17.3921 -1.01411 -1.1251 -1.13983 4.99315
lowerback 7.76049 -0.709325 -3.43927
upperback 0.262584 -1.17446 1.80419
thorax -3.97545 -0.503143 3.94246
lowerneck -15.6013 -1.80552 -9.35979
upperneck 24.1074 -0.881507 3.27894
head 10.365 -0.877607 2.62527
rclavicle -2.08724e-015 2.38542e-014
rhumerus -32.6094 -13.0609 -77.862
rradius 30.2143
rwrist 6.61666
rhand -15.8444 14.8709
rfingers 7.12502
rthumb 10.3503 -14.8544
lclavicle -2.08724e-015 2.38542e-014
lhumerus -32.0416 5.46452 85.4353
lradius 25.5302
lwrist -15.1811
lhand -10.4258 26.2364
lfingers 7.12502
lthumb 15.5736 55.6294
rfemur -31.4064 -8.37828 15.9925
rtibia 67.5826
rfoot -10.0283 -3.62768
rtoes -0.859616
lfemur -5.06221 -1.47474 -29.9535
ltibia 27.4788
lfoot -16.672 3.07098
ltoes 1.04739
141
root 1.34854 17.3755 -0.842822 -1.03685 -1.09688 5.11534
lowerback 7.75511 -0.813833 -3.66774
upperback 0.295744 -1.32982 1.89751
thorax -3.91628 -0.577367 4.18552
lowerneck -15.7508 -1.79402 -9.48035
upperneck 23.9681 -0.825958 3.31486
head 10.3403 -0.854757 2.66367
rclavicle 6.55989e-015 4.77083e-015
rhumerus -32.727 -13.0622 -77.6864
rradius 29.782
rwrist 6.79716
rhand -15.851 15.1941
rfingers 7.12502
rthumb 10.3439 -14.5315
lclavicle 6.55989e-015 4.77083e-015
lhumerus -31.6071 5.25114 85.4316
lradius 26.109
lwrist -14.8453
lhand -10.4391 26.0934
lfingers 7.12502
lthumb 15.5608 55.4873
rfemur -32.3779 -8.26598 16.0177
rtibia 65.7687
rfoot -10.0892 -3.93422
rtoes -6.05382
lfemur -4.3904 -1.38367 -30.1176
ltibia 27.2714
lfoot -17.002 3.32278
ltoes 0.57201
